<svg width="153" height="50" viewBox="0 0 153 50" fill="none" xmlns="http://www.w3.org/2000/svg">
<path d="M38 19V7H10V19H38ZM19.3567 13.0017C19.3567 14.9611 17.7706 16.474 15.7913 16.474C13.812 16.474 12.2259 14.9611 12.2259 13.0017C12.2259 11.0422 13.812 9.5293 15.7913 9.5293C17.7706 9.5293 19.3567 11.0422 19.3567 13.0017ZM26.2642 14.0014L27.9136 16.3441H25.871L24.5815 14.3946H23.3586V16.3441H21.7191V9.65593H25.1146C26.6041 9.65593 27.5837 10.689 27.5837 12.0186C27.5837 12.925 27.0406 13.6582 26.2642 13.9981V14.0014ZM35.7775 11.2322H31.9788V12.5151H35.0744V14.0914H31.9788V16.3441H30.3394V9.65593H35.7775V11.2322ZM25.9443 12.0219C25.9443 11.5854 25.731 11.2355 25.018 11.2355H23.3586V12.8217H25.018C25.731 12.8217 25.9443 12.4718 25.9443 12.0219ZM17.6639 13.0017C17.6639 11.9486 16.7576 11.1055 15.7913 11.1055C14.8249 11.1055 13.9186 11.9453 13.9186 13.0017C13.9186 14.058 14.8116 14.8978 15.7913 14.8978C16.7709 14.8978 17.6639 14.058 17.6639 13.0017Z" fill="white" fill-opacity="0.7"/>
<path d="M42.1453 16.8394H43.2442V11.0139H45.3895V10.1637H40V11.0139H42.1453V16.8426V16.8394ZM46.5408 13.5047C46.5408 14.6163 46.8348 15.4759 47.4228 16.0837C48.0107 16.6914 48.7981 16.9969 49.785 16.9969C50.7719 16.9969 51.5593 16.6914 52.1403 16.0837C52.7247 15.4759 53.0152 14.6163 53.0152 13.5047C53.0152 12.3932 52.7247 11.5304 52.1403 10.9195C51.5558 10.3054 50.7719 10 49.785 10C48.7981 10 48.0107 10.3054 47.4228 10.9195C46.8348 11.5335 46.5408 12.3932 46.5408 13.5047ZM51.8813 13.5047C51.8813 14.3864 51.6923 15.0414 51.3144 15.4759C50.9364 15.9073 50.4255 16.1246 49.7885 16.1246C49.1516 16.1246 48.6371 15.9073 48.2557 15.4759C47.8742 15.0414 47.6817 14.3864 47.6817 13.5047C47.6817 12.623 47.8742 11.9586 48.2557 11.5272C48.6406 11.099 49.1516 10.8848 49.7885 10.8848C50.4255 10.8848 50.9364 11.099 51.3144 11.5272C51.6923 11.9555 51.8813 12.6167 51.8813 13.5047ZM55.3285 16.8394H56.4134V14.1943H57.9602C58.6671 14.1943 59.2236 14.0022 59.626 13.6149C60.0285 13.2276 60.2315 12.7332 60.2315 12.1255C60.2315 11.5178 60.032 11.0612 59.6295 10.6991C59.2306 10.3401 58.6741 10.1606 57.9672 10.1606H55.3215V16.8394H55.3285ZM56.4134 13.3788V10.9762H57.8062C58.2332 10.9762 58.5586 11.0738 58.7826 11.269C59.0066 11.4642 59.1221 11.7476 59.1221 12.1129C59.1221 12.5034 59.0101 12.812 58.7826 13.0387C58.5551 13.2654 58.2297 13.3788 57.8062 13.3788H56.4134ZM61.7923 13.5047C61.7923 14.6163 62.0863 15.4759 62.6742 16.0837C63.2622 16.6914 64.0496 16.9969 65.0365 16.9969C66.0234 16.9969 66.8108 16.6914 67.3918 16.0837C67.9762 15.4759 68.2667 14.6163 68.2667 13.5047C68.2667 12.3932 67.9762 11.5304 67.3918 10.9195C66.8073 10.3054 66.0234 10 65.0365 10C64.0496 10 63.2622 10.3054 62.6742 10.9195C62.0863 11.5335 61.7923 12.3932 61.7923 13.5047ZM67.1328 13.5047C67.1328 14.3864 66.9438 15.0414 66.5658 15.4759C66.1879 15.9073 65.6769 16.1246 65.04 16.1246C64.4031 16.1246 63.8886 15.9073 63.5071 15.4759C63.1222 15.0414 62.9332 14.3864 62.9332 13.5047C62.9332 12.623 63.1257 11.9586 63.5071 11.5272C63.8921 11.099 64.4031 10.8848 65.04 10.8848C65.6769 10.8848 66.1879 11.099 66.5658 11.5272C66.9438 11.9555 67.1328 12.6167 67.1328 13.5047ZM75 15.0099C75 14.5124 74.8425 14.1062 74.5275 13.7976C74.2126 13.4858 73.7821 13.2623 73.2362 13.1237L72.0848 12.8372C71.7453 12.7521 71.4933 12.623 71.3324 12.453C71.1714 12.2798 71.0909 12.0783 71.0909 11.8484C71.0909 11.5335 71.2169 11.2942 71.4689 11.1242C71.7208 10.9541 72.0568 10.8722 72.4838 10.8722C72.8337 10.8722 73.1697 10.9289 73.4917 11.0391C73.8136 11.1493 74.1076 11.3194 74.3736 11.5493L74.846 10.7809C74.5135 10.5133 74.1496 10.3149 73.7471 10.1889C73.3482 10.063 72.9352 10 72.5082 10C71.7418 10 71.1294 10.17 70.6674 10.507C70.2055 10.8439 69.978 11.3068 69.978 11.8988C69.978 12.3585 70.125 12.7458 70.419 13.0607C70.7129 13.3756 71.1224 13.5929 71.6508 13.7157L72.7497 13.9676C73.0892 14.0432 73.3657 14.1691 73.5721 14.3423C73.7821 14.5155 73.8836 14.758 73.8836 15.0729C73.8836 15.4035 73.7541 15.6617 73.4952 15.8538C73.2362 16.0459 72.8827 16.1404 72.4418 16.1404C72.0008 16.1404 71.5703 16.0585 71.2029 15.8916C70.8354 15.7278 70.5204 15.5043 70.258 15.2209L69.684 15.9892C70.034 16.3104 70.4365 16.5592 70.8914 16.7355C71.3464 16.9118 71.8608 17 72.4313 17C73.2817 17 73.9221 16.8237 74.3526 16.471C74.783 16.1183 74.9965 15.6334 74.9965 15.013L75 15.0099Z" fill="white" fill-opacity="0.7"/>
<path d="M10.21 24.436H22.04V27.27H13.642V32.782H20.61V35.616H13.642V43H10.21V24.436Z" fill="white" fill-opacity="0.9"/>
<path d="M29.7829 43.312C28.3615 43.312 27.1569 43.0087 26.1689 42.402C25.1982 41.778 24.4615 40.9287 23.9589 39.854C23.4735 38.7793 23.2309 37.5573 23.2309 36.188C23.2309 34.68 23.4995 33.38 24.0369 32.288C24.5742 31.196 25.3195 30.3553 26.2729 29.766C27.2435 29.1767 28.3529 28.882 29.6009 28.882C31.4556 28.882 32.8942 29.532 33.9169 30.832C34.9396 32.1147 35.4509 33.8653 35.4509 36.084C35.4509 36.24 35.4509 36.4133 35.4509 36.604C35.4509 36.7947 35.4422 36.9853 35.4249 37.176H26.5849C26.7409 38.216 27.1049 39.0567 27.6769 39.698C28.2662 40.322 29.0636 40.634 30.0689 40.634C30.8142 40.634 31.4989 40.504 32.1229 40.244C32.7469 39.9667 33.3276 39.62 33.8649 39.204L35.0089 41.674C34.2635 42.246 33.4576 42.662 32.5909 42.922C31.7416 43.182 30.8055 43.312 29.7829 43.312ZM29.4189 31.482C28.6735 31.482 28.0409 31.742 27.5209 32.262C27.0009 32.7647 26.6802 33.6487 26.5589 34.914H32.1489C32.0449 33.6833 31.7589 32.808 31.2909 32.288C30.8402 31.7507 30.2162 31.482 29.4189 31.482Z" fill="white" fill-opacity="0.9"/>
<path d="M46.5182 32.964C45.9288 32.4267 45.3308 32.054 44.7241 31.846C44.1348 31.638 43.5368 31.534 42.9301 31.534C42.2888 31.534 41.7861 31.664 41.4221 31.924C41.0755 32.1667 40.9021 32.5047 40.9021 32.938C40.9021 33.6487 41.3961 34.1253 42.3841 34.368L44.2301 34.836C45.5648 35.1653 46.5615 35.668 47.2201 36.344C47.8962 37.0027 48.2341 37.8693 48.2341 38.944C48.2341 40.3133 47.7401 41.388 46.7521 42.168C45.7815 42.9307 44.4728 43.312 42.8261 43.312C41.6821 43.312 40.6508 43.13 39.7321 42.766C38.8135 42.402 37.9468 41.856 37.1321 41.128L38.6921 38.866C39.2815 39.4207 39.9315 39.8627 40.6421 40.192C41.3701 40.5213 42.1501 40.686 42.9821 40.686C43.6061 40.686 44.0915 40.5473 44.4381 40.27C44.8021 39.9753 44.9841 39.594 44.9841 39.126C44.9841 38.6753 44.8455 38.3287 44.5681 38.086C44.3081 37.8433 43.8748 37.6527 43.2682 37.514L41.2921 37.072C40.1481 36.7947 39.2641 36.3007 38.6401 35.59C38.0161 34.8793 37.7041 34.03 37.7041 33.042C37.7041 31.8113 38.1635 30.8147 39.0821 30.052C40.0181 29.272 41.2748 28.882 42.8521 28.882C43.7881 28.882 44.6635 29.012 45.4781 29.272C46.3101 29.532 47.1161 29.9827 47.8961 30.624L46.5182 32.964Z" fill="white" fill-opacity="0.9"/>
<path d="M52.2611 31.716H49.5571V29.194H52.2611V26.1L55.5631 24.982V29.194H59.2811V31.716H55.5631V38.684C55.5631 39.256 55.7018 39.6893 55.9791 39.984C56.2564 40.2787 56.6291 40.426 57.0971 40.426C57.7558 40.426 58.5098 40.2873 59.3591 40.01L59.1771 42.74C58.6398 42.9133 58.1198 43.0347 57.6171 43.104C57.1144 43.1733 56.6291 43.208 56.1611 43.208C55.4504 43.208 54.8004 43.0693 54.2111 42.792C53.6218 42.5147 53.1451 42.0813 52.7811 41.492C52.4344 40.8853 52.2611 40.1053 52.2611 39.152V31.716Z" fill="white" fill-opacity="0.9"/>
<path d="M60.8523 29.194H64.4403L67.0143 38.034L69.9523 29.194H72.5783L75.5423 38.086L78.1163 29.194H81.5743L77.0243 43H74.3723L71.2263 33.51L68.0543 43H65.4283L60.8523 29.194Z" fill="white" fill-opacity="0.9"/>
<path d="M83.4767 32.262C84.0141 31.17 84.7681 30.338 85.7387 29.766C86.7267 29.1767 87.8794 28.882 89.1967 28.882C90.5141 28.882 91.6581 29.1767 92.6287 29.766C93.5994 30.338 94.3447 31.17 94.8647 32.262C95.4021 33.3367 95.6707 34.6193 95.6707 36.11C95.6707 37.6007 95.4021 38.8833 94.8647 39.958C94.3447 41.0327 93.5994 41.8647 92.6287 42.454C91.6581 43.026 90.5141 43.312 89.1967 43.312C87.8794 43.312 86.7267 43.026 85.7387 42.454C84.7681 41.8647 84.0141 41.0327 83.4767 39.958C82.9567 38.8833 82.6967 37.6007 82.6967 36.11C82.6967 34.6193 82.9567 33.3367 83.4767 32.262ZM89.1967 31.638C88.1914 31.638 87.4114 32.0107 86.8567 32.756C86.3194 33.484 86.0507 34.602 86.0507 36.11C86.0507 37.618 86.3194 38.7447 86.8567 39.49C87.4114 40.218 88.1914 40.582 89.1967 40.582C90.2021 40.582 90.9734 40.218 91.5107 39.49C92.0654 38.7447 92.3427 37.618 92.3427 36.11C92.3427 34.602 92.0654 33.484 91.5107 32.756C90.9734 32.0107 90.2021 31.638 89.1967 31.638Z" fill="white" fill-opacity="0.9"/>
<path d="M98.5781 39.906C98.0581 38.814 97.7981 37.5487 97.7981 36.11C97.7981 34.654 98.0667 33.3887 98.6041 32.314C99.1414 31.222 99.9041 30.3813 100.892 29.792C101.897 29.1853 103.085 28.882 104.454 28.882C105.442 28.882 106.309 29.038 107.054 29.35C107.799 29.662 108.484 30.0693 109.108 30.572L107.886 33.068C107.418 32.6693 106.924 32.3487 106.404 32.106C105.901 31.8633 105.321 31.742 104.662 31.742C103.622 31.742 102.79 32.1147 102.166 32.86C101.542 33.588 101.23 34.6713 101.23 36.11C101.23 37.5313 101.542 38.6233 102.166 39.386C102.807 40.1313 103.639 40.504 104.662 40.504C105.303 40.504 105.893 40.374 106.43 40.114C106.985 39.854 107.513 39.5333 108.016 39.152L109.186 41.7C108.545 42.2027 107.843 42.6013 107.08 42.896C106.317 43.1733 105.442 43.312 104.454 43.312C103.067 43.312 101.871 43.0173 100.866 42.428C99.8781 41.8213 99.1154 40.9807 98.5781 39.906Z" fill="white" fill-opacity="0.9"/>
<path d="M111.65 23.76L114.978 23.162V30.78C115.429 30.2427 115.992 29.792 116.668 29.428C117.344 29.064 118.089 28.882 118.904 28.882C120.239 28.882 121.296 29.298 122.076 30.13C122.873 30.962 123.272 32.106 123.272 33.562V43H119.97V33.978C119.97 33.2327 119.753 32.6607 119.32 32.262C118.904 31.8633 118.323 31.664 117.578 31.664C117.041 31.664 116.547 31.7853 116.096 32.028C115.645 32.2533 115.273 32.5567 114.978 32.938V43H111.65V23.76Z" fill="white" fill-opacity="0.9"/>
<path d="M132.623 43.312C131.202 43.312 129.997 43.0087 129.009 42.402C128.038 41.778 127.302 40.9287 126.799 39.854C126.314 38.7793 126.071 37.5573 126.071 36.188C126.071 34.68 126.34 33.38 126.877 32.288C127.414 31.196 128.16 30.3553 129.113 29.766C130.084 29.1767 131.193 28.882 132.441 28.882C134.296 28.882 135.734 29.532 136.757 30.832C137.78 32.1147 138.291 33.8653 138.291 36.084C138.291 36.24 138.291 36.4133 138.291 36.604C138.291 36.7947 138.282 36.9853 138.265 37.176H129.425C129.581 38.216 129.945 39.0567 130.517 39.698C131.106 40.322 131.904 40.634 132.909 40.634C133.654 40.634 134.339 40.504 134.963 40.244C135.587 39.9667 136.168 39.62 136.705 39.204L137.849 41.674C137.104 42.246 136.298 42.662 135.431 42.922C134.582 43.182 133.646 43.312 132.623 43.312ZM132.259 31.482C131.514 31.482 130.881 31.742 130.361 32.262C129.841 32.7647 129.52 33.6487 129.399 34.914H134.989C134.885 33.6833 134.599 32.808 134.131 32.288C133.68 31.7507 133.056 31.482 132.259 31.482Z" fill="white" fill-opacity="0.9"/>
<path d="M141.116 29.194H144.314V30.962C144.748 30.3727 145.32 29.8787 146.03 29.48C146.741 29.0813 147.521 28.882 148.37 28.882C149.705 28.882 150.762 29.298 151.542 30.13C152.34 30.962 152.738 32.106 152.738 33.562V43H149.436V33.978C149.436 33.2327 149.22 32.6607 148.786 32.262C148.37 31.8633 147.79 31.664 147.044 31.664C146.507 31.664 146.013 31.7853 145.562 32.028C145.112 32.2533 144.739 32.5567 144.444 32.938V43H141.116V29.194Z" fill="white" fill-opacity="0.9"/>
</svg>
